# xmcd
#
# Track frame offsets:
#	150
#	67152
#	138864
#	172130
#	177218
#	226944
#
# Disc length: 3357 seconds
#
# Revision: 1
# Processed by: cddbd v1.5.2PL0 Copyright (c) Steve Scherf et al.
# Submitted via: audiograbber 1.83.01
#
DISCID=500d1b06
DTITLE=Grateful Dead - 78-09-02 Giants Stadium, East Rutherford NJ
DYEAR=1900
DGENRE=
TTITLE0=Estimated Prophet
TTITLE1=Eyes Of The World
TTITLE2=Drums
TTITLE3=Space
TTITLE4=Sugar Magnolia
TTITLE5=One More Saturday Night
EXTD=
EXTT0=
EXTT1=
EXTT2=
EXTT3=
EXTT4=
EXTT5=
PLAYORDER=
